<svg width="356" height="356" xmlns="http://www.w3.org/2000/svg" xmlns:xlink="http://www.w3.org/1999/xlink" xml:space="preserve" overflow="hidden"><defs><clipPath id="clip0"><rect x="713" y="1223" width="356" height="356"/></clipPath><clipPath id="clip1"><rect x="756" y="1267" width="270" height="268"/></clipPath><clipPath id="clip2"><rect x="756" y="1267" width="270" height="268"/></clipPath><clipPath id="clip3"><rect x="756" y="1267" width="270" height="268"/></clipPath></defs><g clip-path="url(#clip0)" transform="translate(-713 -1223)"><g clip-path="url(#clip1)"><g clip-path="url(#clip2)"><g clip-path="url(#clip3)"><path d="M911.938 1296.31C911.938 1307.88 902.563 1317.25 891 1317.25 879.437 1317.25 870.062 1307.88 870.062 1296.31 870.062 1284.75 879.437 1275.38 891 1275.38 902.563 1275.38 911.938 1284.75 911.938 1296.31Z" stroke="#A100FF" stroke-width="16.7499" stroke-linejoin="round" fill="none"/><path d="M863.902 1410.65C865.42 1401.2 866.1 1392.06 863.64 1385.74 861.546 1380.31 856.992 1377.27 851.496 1375.19L803.062 1359.52C796.781 1357.43 790.913 1353.92 790.5 1346.99 789.977 1338.09 797.828 1332.34 805.68 1334.43 805.68 1334.43 851.742 1350.73 891 1350.73 930.258 1350.73 975.797 1334.5 975.797 1334.5 985.219 1331.89 991.5 1339.21 991.5 1346.96 991.5 1354.39 985.742 1357.01 978.938 1359.49L932.875 1376.19C928.688 1377.76 921.883 1380.9 919.266 1385.71 916.125 1391.33 916.648 1401.16 918.166 1410.62L921.255 1426.12 940.836 1511.92C942.302 1518.8 937.539 1525.23 930.682 1526.44 923.825 1527.64 918.219 1522.96 916.188 1516.3L896.527 1455.62C895.582 1452.71 894.744 1449.77 894.015 1446.79L891 1434.5 888.226 1445.83C887.346 1449.44 886.335 1453.02 885.19 1456.55L865.875 1516.25C863.781 1522.98 858.285 1527.64 851.428 1526.44 844.571 1525.24 839.703 1518.28 841.242 1511.92L860.813 1426.16Z" stroke="#A100FF" stroke-width="16.7499" stroke-linejoin="round" fill="none"/></g></g></g><path d="M720 1401C720 1306.56 796.559 1230 891 1230 985.441 1230 1062 1306.56 1062 1401 1062 1495.44 985.441 1572 891 1572 796.559 1572 720 1495.44 720 1401Z" stroke="#A100FF" stroke-width="13.75" stroke-miterlimit="8" fill="none" fill-rule="evenodd"/></g></svg>